<?xml version="1.0" standalone="no"?><!-- Generator: Gravit.io --><svg xmlns="http://www.w3.org/2000/svg" xmlns:xlink="http://www.w3.org/1999/xlink" style="isolation:isolate" viewBox="0 0 48 48" width="48" height="48"><defs><clipPath id="_clipPath_7un0Nh9pz2eNlgXDVJbf4OAyY6nUmfgk"><rect width="48" height="48"/></clipPath></defs><g clip-path="url(#_clipPath_7un0Nh9pz2eNlgXDVJbf4OAyY6nUmfgk)"><g transform="matrix(1,0,0,1,7,11)"><text transform="matrix(1,0,0,1,2.89,21.377)" style="font-family:&quot;Open Sans&quot;;font-weight:700;font-size:20px;font-style:normal;fill:#000000;stroke:none;">2D</text></g><line x1="6.18" y1="43" x2="20" y2="31" vector-effect="non-scaling-stroke" stroke-width="2" stroke="rgb(0,0,0)" stroke-linejoin="miter" stroke-linecap="square" stroke-miterlimit="3"/><path d=" M 5 24 C 5 13.514 13.514 5 24 5 C 34.486 5 43 13.514 43 24 C 43 34.486 34.486 43 24 43 C 13.514 43 5 34.486 5 24 Z " fill="none" vector-effect="non-scaling-stroke" stroke-width="2" stroke="rgb(0,0,0)" stroke-linejoin="miter" stroke-linecap="butt" stroke-miterlimit="3"/><path d="M 4.372 1 L 43.628 1 C 45.489 1 47 2.511 47 4.372 L 47 43.628 C 47 45.489 45.489 47 43.628 47 L 4.372 47 C 2.511 47 1 45.489 1 43.628 L 1 4.372 C 1 2.511 2.511 1 4.372 1 Z" style="fill:none;stroke:#000000;stroke-width:2;stroke-linecap:square;stroke-miterlimit:3;"/></g></svg>