<?xml version="1.0" standalone="no"?><!-- Generator: Gravit.io --><svg xmlns="http://www.w3.org/2000/svg" xmlns:xlink="http://www.w3.org/1999/xlink" style="isolation:isolate" viewBox="0 0 48 48" width="48" height="48"><defs><clipPath id="_clipPath_w8mYgAnxCquGnpVltNS04nTQubPwdA5E"><rect width="48" height="48"/></clipPath></defs><g clip-path="url(#_clipPath_w8mYgAnxCquGnpVltNS04nTQubPwdA5E)"><path d="M 6.18 2 L 41.82 2 C 44.127 2 46 3.873 46 6.18 L 46 41.82 C 46 44.127 44.127 46 41.82 46 L 6.18 46 C 3.873 46 2 44.127 2 41.82 L 2 6.18 C 2 3.873 3.873 2 6.18 2 Z" style="fill:none;stroke:#000000;stroke-width:3;stroke-linecap:square;stroke-miterlimit:3;"/><path d=" M 24 42.66 L 24 22.66 M 24 42.66 L 38 34 M 24 22.66 L 38 14 M 38 34 L 38 14" fill-rule="evenodd" fill="none" vector-effect="non-scaling-stroke" stroke-width="0.953" stroke="rgb(0,0,0)" stroke-linejoin="miter" stroke-linecap="square" stroke-miterlimit="3"/><path d=" M 24 42.66 L 24 22.66 M 24 42.66 L 10 34 M 24 22.66 L 10 14 M 10 34 L 10 14" fill-rule="evenodd" fill="none" vector-effect="non-scaling-stroke" stroke-width="0.953" stroke="rgb(0,0,0)" stroke-linejoin="miter" stroke-linecap="square" stroke-miterlimit="3"/><line x1="38" y1="14" x2="24" y2="5.34" vector-effect="non-scaling-stroke" stroke-width="0.929" stroke="rgb(0,0,0)" stroke-linejoin="miter" stroke-linecap="square" stroke-miterlimit="3"/><line x1="10" y1="14" x2="24" y2="5.34" vector-effect="non-scaling-stroke" stroke-width="0.929" stroke="rgb(0,0,0)" stroke-linejoin="miter" stroke-linecap="square" stroke-miterlimit="3"/><g transform="matrix(0.853,0.492,0.066,0.903,10,14)"><text transform="matrix(1,0,0,1,0,19.239)" style="font-family:&quot;Open Sans&quot;;font-weight:400;font-size:18px;font-style:normal;fill:#000000;stroke:none;">3</text></g><g transform="matrix(0.802,-0.417,0.027,0.878,24.824,17.595)"><text transform="matrix(1,0,0,1,0,21.377)" style="font-family:&quot;Open Sans&quot;;font-weight:400;font-size:20px;font-style:normal;fill:#000000;stroke:none;">D</text></g></g></svg>