<?xml version="1.0" standalone="no"?><!-- Generator: Gravit.io --><svg xmlns="http://www.w3.org/2000/svg" xmlns:xlink="http://www.w3.org/1999/xlink" style="isolation:isolate" viewBox="0 0 48 48" width="48" height="48"><defs><clipPath id="_clipPath_9UewVlKDNQNqode7EYGTr9Vh23EqPr27"><rect width="48" height="48"/></clipPath></defs><g clip-path="url(#_clipPath_9UewVlKDNQNqode7EYGTr9Vh23EqPr27)"><path d="M 6.18 2 L 41.82 2 C 44.127 2 46 3.873 46 6.18 L 46 41.82 C 46 44.127 44.127 46 41.82 46 L 6.18 46 C 3.873 46 2 44.127 2 41.82 L 2 6.18 C 2 3.873 3.873 2 6.18 2 Z" style="fill:none;stroke:#000000;stroke-width:3;stroke-linecap:square;stroke-miterlimit:3;"/><path d=" M 8 24 C 8 15.169 15.169 8 24 8 C 32.831 8 40 15.169 40 24 C 40 32.831 32.831 40 24 40 C 15.169 40 8 32.831 8 24 Z " fill="none" vector-effect="non-scaling-stroke" stroke-width="3" stroke="rgb(0,0,0)" stroke-linejoin="miter" stroke-linecap="square" stroke-miterlimit="3"/><path d=" M 21.5 24 C 21.5 22.62 22.62 21.5 24 21.5 C 25.38 21.5 26.5 22.62 26.5 24 C 26.5 25.38 25.38 26.5 24 26.5 C 22.62 26.5 21.5 25.38 21.5 24 Z " fill="none" vector-effect="non-scaling-stroke" stroke-width="2" stroke="rgb(0,0,0)" stroke-linejoin="miter" stroke-linecap="square" stroke-miterlimit="3"/><path d=" M 24 13 C 28.047 13 31.587 15.191 33.497 18.45" fill="none" vector-effect="non-scaling-stroke" stroke-width="2" stroke="rgb(0,0,0)" stroke-linejoin="miter" stroke-linecap="square" stroke-miterlimit="3"/><path d=" M 23.497 34.45 C 19.45 34.45 15.91 32.259 14 29" fill="none" vector-effect="non-scaling-stroke" stroke-width="2" stroke="rgb(0,0,0)" stroke-linejoin="miter" stroke-linecap="square" stroke-miterlimit="3"/></g></svg>