<?xml version="1.0" standalone="no"?><!-- Generator: Gravit.io --><svg xmlns="http://www.w3.org/2000/svg" xmlns:xlink="http://www.w3.org/1999/xlink" style="isolation:isolate" viewBox="0 0 48 48" width="48" height="48"><defs><clipPath id="_clipPath_OcavHy0Uo6irgbHvBywW7hjPt1096WYV"><rect width="48" height="48"/></clipPath></defs><g clip-path="url(#_clipPath_OcavHy0Uo6irgbHvBywW7hjPt1096WYV)"><path d="M 6.18 2 L 41.82 2 C 44.127 2 46 3.873 46 6.18 L 46 41.82 C 46 44.127 44.127 46 41.82 46 L 6.18 46 C 3.873 46 2 44.127 2 41.82 L 2 6.18 C 2 3.873 3.873 2 6.18 2 Z" style="fill:none;stroke:#000000;stroke-width:3;stroke-linecap:square;stroke-miterlimit:3;"/><path d=" M 13.5 40.5 L 13.5 8.5 M 34.5 40.5 L 13.5 40.5 M 34.5 39.5 L 34.5 14.5 M 13.5 7.5 L 26.5 7.5 M 27.5 7.5 L 34.5 13.5" fill-rule="evenodd" fill="none" vector-effect="non-scaling-stroke" stroke-width="3" stroke="rgb(0,0,0)" stroke-linejoin="miter" stroke-linecap="square" stroke-miterlimit="3"/><line x1="17" y1="9" x2="17" y2="14" vector-effect="non-scaling-stroke" stroke-width="3" stroke="rgb(0,0,0)" stroke-linejoin="miter" stroke-linecap="square" stroke-miterlimit="3"/><line x1="21" y1="8" x2="21" y2="14" vector-effect="non-scaling-stroke" stroke-width="3" stroke="rgb(0,0,0)" stroke-linejoin="miter" stroke-linecap="square" stroke-miterlimit="3"/><line x1="25" y1="9" x2="25" y2="14" vector-effect="non-scaling-stroke" stroke-width="3" stroke="rgb(0,0,0)" stroke-linejoin="miter" stroke-linecap="square" stroke-miterlimit="3"/></g></svg>