<?xml version="1.0" standalone="no"?><!-- Generator: Gravit.io --><svg xmlns="http://www.w3.org/2000/svg" xmlns:xlink="http://www.w3.org/1999/xlink" style="isolation:isolate" viewBox="0 0 48 48" width="48" height="48"><defs><clipPath id="_clipPath_boLaGuOxacTnuOsXIjYzl2YGTb6qmURP"><rect width="48" height="48"/></clipPath></defs><g clip-path="url(#_clipPath_boLaGuOxacTnuOsXIjYzl2YGTb6qmURP)"><path d="M 5.52 2 L 42.48 2 C 44.423 2 46 3.577 46 5.52 L 46 42.48 C 46 44.423 44.423 46 42.48 46 L 5.52 46 C 3.577 46 2 44.423 2 42.48 L 2 5.52 C 2 3.577 3.577 2 5.52 2 Z" style="fill:none;stroke:#000000;stroke-width:3;stroke-linecap:square;stroke-miterlimit:3;"/><line x1="24" y1="38" x2="24" y2="10" vector-effect="non-scaling-stroke" stroke-width="3" stroke="rgb(0,0,0)" stroke-linejoin="miter" stroke-linecap="square" stroke-miterlimit="3"/><path d=" M 20.5 39.5 C 20.5 37.568 22.068 36 24 36 C 25.932 36 27.5 37.568 27.5 39.5 C 27.5 41.432 25.932 43 24 43 C 22.068 43 20.5 41.432 20.5 39.5 Z " fill="rgb(0,0,0)" vector-effect="non-scaling-stroke" stroke-width="3" stroke="rgb(0,0,0)" stroke-linejoin="miter" stroke-linecap="butt" stroke-miterlimit="3"/><path d=" M 33.5 12.83 C 33.5 11.45 34.62 10.33 36 10.33 C 37.38 10.33 38.5 11.45 38.5 12.83 C 38.5 14.21 37.38 15.33 36 15.33 C 34.62 15.33 33.5 14.21 33.5 12.83 Z " fill="rgb(0,0,0)" vector-effect="non-scaling-stroke" stroke-width="2.143" stroke="rgb(0,0,0)" stroke-linejoin="miter" stroke-linecap="butt" stroke-miterlimit="3"/><polygon points="29.049,12.83,18.951,12.66,24.147,4" fill="rgb(0,0,0)"/><path d=" M 24 27 L 36 22 M 36 12.83 L 36 22" fill-rule="evenodd" fill="none" vector-effect="non-scaling-stroke" stroke-width="2" stroke="rgb(0,0,0)" stroke-linejoin="miter" stroke-linecap="square" stroke-miterlimit="3"/><path d=" M 24 31.085 L 12 26.085 M 12 16.915 L 12 26.085" fill-rule="evenodd" fill="none" vector-effect="non-scaling-stroke" stroke-width="2" stroke="rgb(0,0,0)" stroke-linejoin="miter" stroke-linecap="square" stroke-miterlimit="3"/><rect x="9" y="12.83" width="6" height="6" transform="matrix(1,0,0,1,0,0)" fill="rgb(0,0,0)" vector-effect="non-scaling-stroke" stroke-width="1.704" stroke="rgb(0,0,0)" stroke-linejoin="miter" stroke-linecap="square" stroke-miterlimit="3"/></g></svg>