<?xml version="1.0" standalone="no"?><!-- Generator: Gravit.io --><svg xmlns="http://www.w3.org/2000/svg" xmlns:xlink="http://www.w3.org/1999/xlink" style="isolation:isolate" viewBox="0 0 48 48" width="48" height="48"><defs><clipPath id="_clipPath_wKPl9nSNm6P1Z5aEIppbfg0aExkaMXwM"><rect width="48" height="48"/></clipPath></defs><g clip-path="url(#_clipPath_wKPl9nSNm6P1Z5aEIppbfg0aExkaMXwM)"><line x1="2" y1="9" x2="46" y2="9" vector-effect="non-scaling-stroke" stroke-width="3" stroke="rgb(0,0,0)" stroke-linejoin="miter" stroke-linecap="square" stroke-miterlimit="3"/><rect x="24" y="6" width="11" height="22" transform="matrix(1,0,0,1,0,0)" fill="rgb(0,0,0)"/><rect x="-1" y="-1" width="2" height="2" transform="matrix(1,0,0,1,0,0)" fill="rgb(0,0,0)"/><rect x="27" y="28" width="5" height="5" transform="matrix(1,0,0,1,0,0)" fill="rgb(0,0,0)"/><polygon points="29.5,36,27.768,33,31.232,33" fill="rgb(0,0,255)"/><path d=" M 36 13 C 39.311 13 42 14.355 42 16.024 C 42 17.694 39.311 19.049 36 19.049 L 36 13 Z " fill="rgb(0,0,0)"/><path d=" M 23 13 C 19.689 13 17 14.355 17 16.024 C 17 17.694 19.689 19.049 23 19.049 L 23 13 Z " fill="rgb(0,0,0)"/></g></svg>