<?xml version="1.0" standalone="no"?><!-- Generator: Gravit.io --><svg xmlns="http://www.w3.org/2000/svg" xmlns:xlink="http://www.w3.org/1999/xlink" style="isolation:isolate" viewBox="0 0 48 48" width="48" height="48"><defs><clipPath id="_clipPath_IVhzeCKvBk8vdflQArpOsRko0a5RFjKW"><rect width="48" height="48"/></clipPath></defs><g clip-path="url(#_clipPath_IVhzeCKvBk8vdflQArpOsRko0a5RFjKW)"><path d=" M 2 0 C 0.895 0 0 0.896 0 2 C 0 3.105 0.895 4.001 2 4.001 C 3.104 4.001 3.999 3.105 3.999 2 C 3.999 0.896 3.104 0 2 0 Z  M 27.535 4.001 C 25.664 4.001 23.996 5.509 23.996 7.453 L 23.996 12.002 L 3.999 12.002 L 3.999 8.001 L 0 8.001 L 0 34.006 C 0 37.298 2.708 40.007 5.999 40.007 L 23.996 40.007 L 23.996 44.671 C 23.996 46.66 25.748 48 27.535 48 L 44.453 48 C 46.236 48 48 46.656 48 44.671 L 48 35.334 C 48 33.346 46.24 32.005 44.453 32.005 L 35.462 32.005 L 34.206 29.793 C 33.575 28.679 32.391 27.995 31.111 28.005 L 27.535 28.005 C 25.664 28.005 23.996 29.513 23.996 31.457 L 23.996 36.006 L 5.999 36.006 C 5.466 36.014 4.953 35.805 4.577 35.429 C 4.2 35.052 3.992 34.538 3.999 34.006 L 3.999 16.003 L 23.996 16.003 L 23.996 20.675 C 23.996 22.656 25.748 24 27.535 23.996 L 44.453 23.996 C 46.236 23.996 48 22.652 48 20.667 L 48 11.33 C 48 9.342 46.24 8.001 44.453 8.001 L 35.462 8.001 L 34.206 5.789 C 33.575 4.675 32.391 3.991 31.111 4.001 L 27.535 4.001 Z  M 27.995 8.001 L 30.863 8.001 L 32.263 10.462 L 32.983 12.002 L 43.997 12.002 L 43.997 19.995 L 27.995 19.995 L 27.995 8.001 Z  M 27.995 32.005 L 30.863 32.005 L 32.263 34.466 L 32.983 36.006 L 43.997 36.006 L 43.997 43.999 L 27.995 43.999 L 27.995 32.005 Z " fill="rgb(0,0,0)"/></g></svg>