<?xml version="1.0" standalone="no"?><!-- Generator: Gravit.io --><svg xmlns="http://www.w3.org/2000/svg" xmlns:xlink="http://www.w3.org/1999/xlink" style="isolation:isolate" viewBox="0 0 48 48" width="48" height="48"><defs><clipPath id="_clipPath_qklDyW7fLeliNRUMCqkTrylPPPAMkkBg"><rect width="48" height="48"/></clipPath></defs><g clip-path="url(#_clipPath_qklDyW7fLeliNRUMCqkTrylPPPAMkkBg)"><path d=" M 5.143 0 C 2.318 0 0 2.704 0 6 L 0 42 C 0 45.296 2.318 48 5.143 48 L 42.857 48 C 45.682 48 48 45.296 48 42 L 48 6 C 48 2.704 45.682 0 42.857 0 L 5.143 0 Z  M 5.143 4 L 42.857 4 C 43.821 4 44.571 4.876 44.571 6 L 44.571 42 C 44.571 43.124 43.821 44 42.857 44 L 5.143 44 C 4.687 44.007 4.247 43.798 3.925 43.421 C 3.602 43.045 3.423 42.532 3.429 42 L 3.429 6 C 3.429 4.876 4.179 4 5.143 4 Z  M 24 4.172 L 17.29 12 L 30.71 12 L 24 4.172 Z  M 10.286 16.172 L 3.576 24 L 10.286 31.828 L 10.286 16.172 Z  M 37.714 16.172 L 37.714 31.828 L 44.424 24 L 37.714 16.172 Z  M 17.29 36 L 24 43.828 L 30.71 36 L 17.29 36 Z " fill="rgb(0,0,0)"/></g></svg>