<?xml version="1.0" standalone="no"?><!-- Generator: Gravit.io --><svg xmlns="http://www.w3.org/2000/svg" xmlns:xlink="http://www.w3.org/1999/xlink" style="isolation:isolate" viewBox="0 0 48 48" width="48" height="48"><defs><clipPath id="_clipPath_qb6s9BhIFYybqj9395EVZ0vBEFGY7kTj"><rect width="48" height="48"/></clipPath></defs><g clip-path="url(#_clipPath_qb6s9BhIFYybqj9395EVZ0vBEFGY7kTj)"><path d="M 6.18 2 L 41.82 2 C 44.127 2 46 3.873 46 6.18 L 46 41.82 C 46 44.127 44.127 46 41.82 46 L 6.18 46 C 3.873 46 2 44.127 2 41.82 L 2 6.18 C 2 3.873 3.873 2 6.18 2 Z" style="fill:none;stroke:#000000;stroke-width:3;stroke-linecap:square;stroke-miterlimit:3;"/><g transform="matrix(1,0,0,1,6,8)"><text transform="matrix(1,0,0,1,0,7.482)" style="font-family:&quot;Open Sans&quot;;font-weight:400;font-size:7px;font-style:normal;fill:#000000;stroke:none;">Console</text><text transform="matrix(1,0,0,1,0,17.015)" style="font-family:&quot;Open Sans&quot;;font-weight:400;font-size:7px;font-style:normal;fill:#000000;stroke:none;">M115</text><text transform="matrix(1,0,0,1,0,26.547)" style="font-family:&quot;Open Sans&quot;;font-weight:400;font-size:7px;font-style:normal;fill:#000000;stroke:none;">Ok</text></g></g></svg>