<?xml version="1.0" standalone="no"?><!-- Generator: Gravit.io --><svg xmlns="http://www.w3.org/2000/svg" xmlns:xlink="http://www.w3.org/1999/xlink" style="isolation:isolate" viewBox="0 0 48 48" width="48" height="48"><defs><clipPath id="_clipPath_u89S9ppyVFVyv0oGQuAKphAQx55QKe9U"><rect width="48" height="48"/></clipPath></defs><g clip-path="url(#_clipPath_u89S9ppyVFVyv0oGQuAKphAQx55QKe9U)"><path d=" M 6 21 C 6 11.066 14.066 3 24 3 C 33.934 3 42 11.066 42 21 C 42 30.934 33.934 39 24 39 C 14.066 39 6 30.934 6 21 Z " fill="none" vector-effect="non-scaling-stroke" stroke-width="2" stroke="rgb(0,0,0)" stroke-linejoin="miter" stroke-linecap="square" stroke-miterlimit="3"/><polygon points="11.969,46,23.907,39,36.031,45.964" fill="none" vector-effect="non-scaling-stroke" stroke-width="2" stroke="rgb(0,0,0)" stroke-linejoin="miter" stroke-linecap="square" stroke-miterlimit="4"/><path d=" M 15 21.056 C 14.968 16.089 18.975 12.031 23.943 12 C 28.91 11.969 32.968 15.977 33 20.944 C 33.032 25.911 29.025 29.969 24.057 30 C 19.09 30.031 15.032 26.023 15 21.056 Z " fill-rule="evenodd" fill="none" vector-effect="non-scaling-stroke" stroke-width="2" stroke="rgb(255,0,0)" stroke-linejoin="miter" stroke-linecap="square" stroke-miterlimit="3"/><path d=" M 19 21.031 C 18.982 18.272 21.209 16.017 23.968 16 C 26.728 15.983 28.982 18.209 29 20.969 C 29.018 23.728 26.791 25.983 24.032 26 C 21.272 26.017 19.018 23.791 19 21.031 Z " fill-rule="evenodd" fill="none" vector-effect="non-scaling-stroke" stroke-width="2" stroke="rgb(0,0,0)" stroke-linejoin="miter" stroke-linecap="square" stroke-miterlimit="3"/><line x1="24" y1="9" x2="24" y2="6" vector-effect="non-scaling-stroke" stroke-width="3" stroke="rgb(255,0,0)" stroke-linejoin="miter" stroke-linecap="square" stroke-miterlimit="3"/></g></svg>