<?xml version="1.0" standalone="no"?><!-- Generator: Gravit.io --><svg xmlns="http://www.w3.org/2000/svg" xmlns:xlink="http://www.w3.org/1999/xlink" style="isolation:isolate" viewBox="0 0 48 48" width="48" height="48"><defs><clipPath id="_clipPath_4xIZ36x0uzBFU65dfMajOgqxnGUiyC4b"><rect width="48" height="48"/></clipPath></defs><g clip-path="url(#_clipPath_4xIZ36x0uzBFU65dfMajOgqxnGUiyC4b)"><g id="Group"><path d=" M 38 16 L 10 16 C 6.68 16 4 18.68 4 22 L 4 34 L 12 34 L 12 42 L 36 42 L 36 34 L 44 34 L 44 22 C 44 18.68 41.32 16 38 16 Z  M 32 38 L 16 38 L 16 28 L 32 28 L 32 38 Z  M 38 24 C 36.9 24 36 23.1 36 22 C 36 20.9 36.9 20 38 20 C 39.1 20 40 20.9 40 22 C 40 23.1 39.1 24 38 24 Z  M 36 6 L 12 6 L 12 14 L 36 14 L 36 6 Z " fill="rgb(0,0,0)"/><path d=" M 0 0 L 48 0 L 48 48 L 0 48 L 0 0 Z " fill="none"/></g></g></svg>