<?xml version="1.0" standalone="no"?><!-- Generator: Gravit.io --><svg xmlns="http://www.w3.org/2000/svg" xmlns:xlink="http://www.w3.org/1999/xlink" style="isolation:isolate" viewBox="0 0 48 48" width="48" height="48"><defs><clipPath id="_clipPath_Wlm5F1eHmCGIDIhpydgRmnhTlkbdBAOf"><rect width="48" height="48"/></clipPath></defs><g clip-path="url(#_clipPath_Wlm5F1eHmCGIDIhpydgRmnhTlkbdBAOf)"><rect x="0" y="0" width="48" height="48" transform="matrix(1,0,0,1,0,0)" fill="none"/><rect x="4" y="17" width="41" height="25" transform="matrix(1,0,0,1,0,0)" fill="none" vector-effect="non-scaling-stroke" stroke-width="3" stroke="rgb(0,0,0)" stroke-linejoin="miter" stroke-linecap="round" stroke-miterlimit="3"/><line x1="6" y1="33" x2="43" y2="33" vector-effect="non-scaling-stroke" stroke-width="4" stroke="rgb(0,0,0)" stroke-linejoin="miter" stroke-linecap="round" stroke-miterlimit="3"/><path d=" M 16 11.5 C 16 9.568 17.568 8 19.5 8 C 21.432 8 23 9.568 23 11.5 C 23 13.432 21.432 15 19.5 15 C 17.568 15 16 13.432 16 11.5 Z " fill="none" vector-effect="non-scaling-stroke" stroke-width="2" stroke="rgb(0,0,0)" stroke-linejoin="miter" stroke-linecap="butt" stroke-miterlimit="3"/><path d=" M 25 11.5 C 25 9.568 26.568 8 28.5 8 C 30.432 8 32 9.568 32 11.5 C 32 13.432 30.432 15 28.5 15 C 26.568 15 25 13.432 25 11.5 Z " fill="none" vector-effect="non-scaling-stroke" stroke-width="2" stroke="rgb(0,0,0)" stroke-linejoin="miter" stroke-linecap="butt" stroke-miterlimit="3"/><line x1="22" y1="14" x2="13" y2="23" vector-effect="non-scaling-stroke" stroke-width="2" stroke="rgb(0,0,0)" stroke-linejoin="miter" stroke-linecap="butt" stroke-miterlimit="3"/><line x1="26" y1="14" x2="35" y2="23" vector-effect="non-scaling-stroke" stroke-width="2" stroke="rgb(0,0,0)" stroke-linejoin="miter" stroke-linecap="butt" stroke-miterlimit="3"/></g></svg>