<?xml version="1.0" standalone="no"?><!-- Generator: Gravit.io --><svg xmlns="http://www.w3.org/2000/svg" xmlns:xlink="http://www.w3.org/1999/xlink" style="isolation:isolate" viewBox="0 0 48 48" width="48" height="48"><defs><clipPath id="_clipPath_RMqiBWx2oMquumh1N8O9Fl5EFHmhT62Y"><rect width="48" height="48"/></clipPath></defs><g clip-path="url(#_clipPath_RMqiBWx2oMquumh1N8O9Fl5EFHmhT62Y)"><path d=" M 21.327 3 L 20.344 9.217 C 18.868 9.568 17.452 10.139 16.145 10.909 L 11.017 7.254 L 7.309 10.963 L 10.908 16.093 C 10.121 17.398 9.533 18.814 9.163 20.293 L 3 21.329 L 3 26.566 L 9.163 27.657 C 9.538 29.158 10.132 30.568 10.908 31.856 L 7.254 36.985 L 10.963 40.694 L 16.092 37.091 C 17.4 37.861 18.815 38.432 20.292 38.783 L 21.329 45 L 26.565 45 L 27.71 38.783 C 29.172 38.413 30.569 37.824 31.855 37.037 L 37.037 40.69 L 40.746 36.981 L 37.037 31.855 C 37.82 30.566 38.409 29.17 38.783 27.709 L 45 26.564 L 45 21.328 L 38.783 20.291 C 38.409 18.83 37.821 17.433 37.037 16.145 L 40.691 10.963 L 36.982 7.254 L 31.854 10.963 C 30.547 10.177 29.132 9.589 27.654 9.217 L 26.563 3.002 L 21.327 3 Z  M 23.999 12.6 C 30.294 12.602 35.397 17.705 35.398 24 C 35.397 30.295 30.294 35.398 23.999 35.4 C 17.705 35.395 12.605 30.294 12.6 24 C 12.605 17.706 17.705 12.605 23.999 12.6 L 23.999 12.6 Z  M 23.999 15.381 C 19.243 15.39 15.39 19.244 15.38 24 C 15.39 28.756 19.243 32.61 23.999 32.619 C 28.755 32.61 32.608 28.756 32.618 24 C 32.608 19.244 28.755 15.39 23.999 15.381 L 23.999 15.381 Z  M 23.945 20.401 C 25.942 20.401 27.6 21.996 27.6 24 C 27.6 25.999 25.942 27.601 23.945 27.601 C 22.989 27.604 22.071 27.226 21.395 26.55 C 20.719 25.874 20.341 24.956 20.344 24 C 20.344 21.996 21.947 20.399 23.945 20.399 L 23.945 20.401 Z " fill="rgb(0,0,0)"/></g></svg>