<?xml version="1.0" standalone="no"?><!-- Generator: Gravit.io --><svg xmlns="http://www.w3.org/2000/svg" xmlns:xlink="http://www.w3.org/1999/xlink" style="isolation:isolate" viewBox="0 0 48 48" width="48" height="48"><defs><clipPath id="_clipPath_ixDdUFs93RGmzUfR2hJXy7HPuVGfntga"><rect width="48" height="48"/></clipPath></defs><g clip-path="url(#_clipPath_ixDdUFs93RGmzUfR2hJXy7HPuVGfntga)"><path d=" M 12 24 C 12 17.377 17.377 12 24 12 C 30.623 12 36 17.377 36 24 C 36 30.623 30.623 36 24 36 C 17.377 36 12 30.623 12 24 Z " fill="none" vector-effect="non-scaling-stroke" stroke-width="6" stroke="rgb(0,0,0)" stroke-linejoin="miter" stroke-linecap="square" stroke-miterlimit="3"/><path d=" M 32 9 C 32 6.792 33.792 5 36 5 C 38.208 5 40 6.792 40 9 C 40 11.208 38.208 13 36 13 C 33.792 13 32 11.208 32 9 Z " fill="rgb(0,0,0)"/><path d=" M 32 40 C 32 37.792 33.792 36 36 36 C 38.208 36 40 37.792 40 40 C 40 42.208 38.208 44 36 44 C 33.792 44 32 42.208 32 40 Z " fill="rgb(0,0,0)" vector-effect="non-scaling-stroke" stroke-width="1" stroke="rgb(0,0,0)" stroke-linejoin="miter" stroke-linecap="square" stroke-miterlimit="3"/><path d=" M 1 24 C 1 21.792 2.792 20 5 20 C 7.208 20 9 21.792 9 24 C 9 26.208 7.208 28 5 28 C 2.792 28 1 26.208 1 24 Z " fill="rgb(0,0,0)"/></g></svg>